<svg xmlns="http://www.w3.org/2000/svg" width="100" height="100" viewBox="0 0 100 100">
  <g id="logo" transform="translate(0 -0.015)">
    <path id="Path_6" data-name="Path 6" d="M95.812,96.927c-12.19-4.852-23.012-15.295-24.8-28.8a2.733,2.733,0,0,1,1.265-2.283c.464-.3.931-.606,1.407-.917a68.718,68.718,0,0,0,7.056-5.515,67.334,67.334,0,0,0,6.333-6.8C94.983,42.16,100.72,28.46,99.927,15.057a38.8,38.8,0,0,0-1.645-9.191c-.175-.63-.328-1.179-.458-1.637-.253-.9-.732-.935-1.073-.072-.172.437-.377.962-.618,1.565a22.14,22.14,0,0,1-1.6,3.392c-4.323,7.611-16.375,22.634-26.9,19.845-2.549-.675-4.167-4.62-5.724-6.577A60.953,60.953,0,0,0,45.3,7.859C34.035,1.222,18.57-2.273,5.775,1.68c-.63.175-1.178.329-1.636.458-1.033.289-1.633.455-1.633.455L5.63,3.83a22.739,22.739,0,0,1,3.389,1.6A41.933,41.933,0,0,1,23.05,17.62c3.133,4.442,9.481,13.648,3.142,17.589C11.152,44.56-.727,63.811.035,81.937q.068,1.624.133,3.13a35.156,35.156,0,0,0,.6,5.292,24.281,24.281,0,0,0,.829,3.911c.175.63.328,1.179.458,1.637.253.908.732.938,1.073.072.172-.44.38-.962.618-1.565a22.391,22.391,0,0,1,1.6-3.392A29.824,29.824,0,0,1,7.766,86.97,43.418,43.418,0,0,1,20.1,75.378c2.576-1.55,11.69-6.628,14.085-2.952,9.328,14.324,23.572,24.223,40.495,27a27.317,27.317,0,0,0,3.739.4c1.157.063,2.281.124,3.365.184,1.082-.048,2.124-.087,3.13-.133a35.462,35.462,0,0,0,5.284-.6,23.9,23.9,0,0,0,3.908-.829c.63-.175,1.181-.326,1.636-.455C96.634,97.747,96.668,97.271,95.812,96.927ZM49.927,59.873a9.777,9.777,0,0,1-9.743-9.312c-.009-.166-.048-.326-.048-.495a9.776,9.776,0,0,1,19.541-.492c.006.166.048.326.048.495A9.8,9.8,0,0,1,49.927,59.873Z" transform="translate(0 0)" fill="#fff"/>
  </g>
</svg>
